<svg width="80" height="72" viewBox="0 0 80 72" fill="none" xmlns="http://www.w3.org/2000/svg">
<path d="M31.3647 42.0664C31.8195 42.6458 31.7185 43.4838 31.1392 43.9384C30.5215 44.4233 30.0025 45.0456 29.6382 45.7379C29.3995 46.1916 28.9363 46.4506 28.4572 46.4506C27.4603 46.4506 26.8103 45.3857 27.2783 44.4961C27.8162 43.4739 28.5818 42.5558 29.4925 41.8408C30.0718 41.3864 30.91 41.4873 31.3647 42.0664ZM78.6667 69.2499H74.5433C74.1563 67.1273 72.86 65.2889 70.9732 64.2161C71.6602 53.8521 59.697 47.3454 51.3805 53.7991C50.7987 54.2504 50.693 55.0881 51.1445 55.6699C51.5958 56.2518 52.4335 56.3574 53.0153 55.9059C54.714 54.5879 56.7603 53.9166 58.8333 53.9166C64.5273 53.9166 69.0762 58.9554 68.2303 64.8179C68.1423 65.4283 68.484 66.0193 69.0568 66.2473C70.8447 66.9588 72 68.6608 72 70.5833C72 71.3196 72.597 71.9166 73.3333 71.9166H78.6667C79.403 71.9166 80 71.3196 80 70.5833C80 69.8469 79.403 69.2499 78.6667 69.2499ZM63.4167 69.2499H11.2215C9.57833 61.6031 14.0265 55.6016 20.8423 54.5614C21.591 56.2078 22.497 57.3583 22.4802 57.3359C24.2673 59.7188 26.5768 61.4148 29.1528 62.4091C29.8387 62.6739 30.6113 62.3331 30.8768 61.6453C31.142 60.9583 30.8002 60.1864 30.113 59.9213C27.9257 59.0769 26.0255 57.6318 24.6182 55.7423C18.5018 47.5264 24.4577 35.9166 34.5833 35.9166C40.8005 35.9166 45.9368 40.4313 46.8497 46.4289C41.1918 46.6828 36.6667 51.3638 36.6667 57.0833C36.6667 57.8196 37.2637 58.4166 38 58.4166C38.7363 58.4166 39.3333 57.8196 39.3333 57.0833C39.3333 52.6638 43.0003 48.7128 48.1835 49.1261C49.0065 49.2111 49.6827 48.5464 49.6523 47.7508C49.3445 39.6736 42.7092 33.2499 34.5833 33.2499C24.8058 33.2499 17.5662 42.4659 19.9503 52.0098C12.1132 53.4733 6.96817 60.3636 8.51333 69.2499H1.33333C0.597 69.2499 0 69.8469 0 70.5833C0 71.3196 0.597 71.9166 1.33333 71.9166H63.4167C64.153 71.9166 64.75 71.3196 64.75 70.5833C64.75 69.8469 64.153 69.2499 63.4167 69.2499ZM53.1528 34.8161C53.6737 34.2954 53.6737 33.4513 53.1528 32.9306C51.0122 30.7899 49.8333 27.9439 49.8333 24.9166C49.8333 18.6674 54.9175 13.5833 61.1667 13.5833C67.4158 13.5833 72.5 18.6674 72.5 24.9166C72.5 31.1658 67.4158 36.2499 61.1667 36.2499C60.4303 36.2499 59.8333 36.8469 59.8333 37.5833C59.8333 38.3196 60.4303 38.9166 61.1667 38.9166C68.8863 38.9166 75.1667 32.6363 75.1667 24.9166C75.1667 17.1969 68.8863 10.9166 61.1667 10.9166C53.447 10.9166 47.1667 17.1969 47.1667 24.9166C47.1667 28.6563 48.6228 32.1719 51.2672 34.8161C51.7878 35.3368 52.632 35.3368 53.1528 34.8161ZM58.2117 18.3859C56.9185 18.9718 55.837 19.9193 55.0838 21.1258C54.5283 22.0156 55.174 23.1653 56.2135 23.1653C56.6582 23.1653 57.093 22.9429 57.3458 22.5378C57.8197 21.7788 58.4995 21.1829 59.312 20.8149C59.9828 20.5111 60.2802 19.7209 59.9763 19.0503C59.6725 18.3796 58.8822 18.0824 58.2117 18.3859ZM37.5 17.7499C38.2363 17.7499 38.8333 17.1529 38.8333 16.4166C38.8333 15.6803 38.2363 15.0833 37.5 15.0833C34.0997 15.0833 31.3333 12.3169 31.3333 8.91659C31.3333 5.51625 34.0997 2.74992 37.5 2.74992C40.9003 2.74992 43.6667 5.51625 43.6667 8.91659C43.6667 9.65292 44.2637 10.2499 45 10.2499C45.7363 10.2499 46.3333 9.65292 46.3333 8.91659C46.3333 4.04592 42.3707 0.083252 37.5 0.083252C32.6293 0.083252 28.6667 4.04592 28.6667 8.91659C28.6667 13.7873 32.6293 17.7499 37.5 17.7499Z" fill="#2E58FF"/>
</svg>
