<svg width="80" height="80" viewBox="0 0 80 80" fill="none" xmlns="http://www.w3.org/2000/svg">
<path d="M52.8937 26.4506L52.8842 28.7899C56.2449 29.4195 58.7961 32.3755 58.7961 35.9162C58.7961 39.9139 55.5437 43.1663 51.546 43.1663C50.8097 43.1663 50.2127 42.5693 50.2127 41.8329C50.2127 41.0966 50.8097 40.4996 51.546 40.4996C54.0734 40.4996 56.1294 38.4434 56.1294 35.9162C56.1294 33.389 54.0734 31.3328 51.546 31.3328C50.8078 31.3328 50.2098 30.7323 50.2127 29.9941L50.227 26.4453C50.227 23.9962 48.2303 21.9994 45.7758 21.9994C43.3213 21.9994 41.3246 23.9961 41.3246 26.4506V28.1676C41.3246 28.9039 40.7276 29.501 39.9912 29.501C39.2549 29.501 38.6579 28.9039 38.6579 28.1676C38.6579 26.3918 38.825 25.1634 37.7472 23.7522C37.3002 23.1671 37.4124 22.3304 37.9975 21.8834C38.5827 21.4359 39.4195 21.5482 39.8664 22.1337C39.91 22.1909 39.9517 22.249 39.9936 22.3074C41.2866 20.508 43.3959 19.3328 45.7758 19.3328C49.7007 19.3327 52.8937 22.5257 52.8937 26.4506ZM23.7757 41.4676C25.0711 42.5576 26.7104 43.1663 28.4368 43.1663C29.1731 43.1663 29.7701 42.5693 29.7701 41.8329C29.7701 41.0966 29.1731 40.4996 28.4368 40.4996C27.1301 40.4996 25.8377 39.9561 24.8827 38.8116C24.4407 38.2812 23.6647 38.1754 23.0924 38.5751C20.5423 40.3702 19.0198 43.3014 19.0198 46.4163C19.0198 54.0542 27.5594 58.6049 33.8902 54.4105C34.5042 54.004 34.672 53.1767 34.2653 52.5627C33.8587 51.9487 33.0313 51.7809 32.4175 52.1875C27.8523 55.2114 21.6865 51.9309 21.6865 46.4163C21.6865 44.5411 22.4534 42.7598 23.7757 41.4676ZM31.5356 59.7761C30.9468 59.3334 30.1111 59.4521 29.6686 60.0406C29.2261 60.6291 29.3446 61.4651 29.9331 61.9076C33.1075 64.294 37.6445 63.625 39.9914 60.3553C44.0241 65.9738 53.0827 63.1575 52.8852 55.8804C57.4566 55.1557 60.9629 51.1884 60.9629 46.4163C60.9629 45.68 60.3659 45.083 59.6296 45.083C58.8932 45.083 58.2962 45.68 58.2962 46.4163C58.2962 51.9359 52.1255 55.2079 47.5653 52.1875C46.9516 51.7805 46.1241 51.9485 45.7174 52.5627C45.3108 53.1767 45.4788 54.0039 46.0926 54.4105C47.3378 55.2356 48.7463 55.7506 50.2188 55.9286C50.2962 58.7766 48.1526 60.6664 45.7759 60.6664C43.3216 60.6664 41.3247 58.6698 41.3247 56.2152C41.3247 55.7652 41.3247 55.6176 41.3247 55.1649C41.3247 54.4286 40.7277 53.8315 39.9914 53.8315C39.255 53.8315 38.658 54.4286 38.658 55.1649V56.2152C38.658 59.8883 34.4445 61.9635 31.5356 59.7761ZM38.7672 0.0179799C38.0104 0.0446469 37.4934 0.649653 37.4735 1.31066C36.9177 19.8095 22.8607 34.9523 4.83402 37.2089L31.1841 10.8588C31.705 10.3379 31.705 9.49391 31.1841 8.97307C30.6635 8.45257 29.8193 8.45257 29.2986 8.97307L0.399806 37.8717C-0.455036 38.7267 0.186971 40.1907 1.38265 40.1472C22.054 39.5261 38.8115 23.1716 40.0781 2.66684C60.6241 2.71384 77.3251 19.4425 77.3251 39.9994C77.3251 60.5853 60.5773 77.3331 39.9914 77.3331C21.8304 77.3331 6.3677 64.3733 3.2245 46.5176C3.09683 45.7921 2.40533 45.3063 1.68015 45.4356C0.954812 45.5633 0.470474 46.2546 0.598142 46.98C3.91368 65.8155 20.371 79.9998 39.9912 79.9998C62.0993 79.9998 79.9916 62.1095 79.9916 39.9994C79.9918 17.6268 61.5818 -0.654527 38.7672 0.0179799Z" fill="#2E58FF"/>
</svg>
