<svg width="80" height="68" viewBox="0 0 80 68" fill="none" xmlns="http://www.w3.org/2000/svg">
<path d="M55.2936 51.9092C59.3586 58.8063 54.394 67.486 46.3973 67.486H10.1791C2.3157 67.486 -2.5656 58.9229 1.43273 52.1591C11.8117 34.5497 11.2453 35.4993 11.3453 35.3827C11.6785 34.9662 12.2282 34.783 12.7613 34.9163C24.0067 38.1316 27.8717 33.0504 34.1025 30.3681C34.7855 30.0849 35.5685 30.3848 35.8517 31.0679C36.1349 31.7509 35.8351 32.5339 35.152 32.8171C30.0208 35.0162 24.2899 40.8471 13.0112 37.7651L3.73177 53.5085C0.783002 58.5064 4.3815 64.8205 10.1791 64.8205H46.3973C52.3282 64.8205 56.01 58.3731 52.9946 53.2586L34.3857 21.7217C34.0858 21.2553 34.1858 22.5381 34.1858 3.17947H22.6905V21.0054C22.6905 21.4885 22.9404 20.9221 18.0258 29.2686C17.6593 29.9017 16.8263 30.1182 16.1932 29.7351C15.5602 29.3686 15.3436 28.5522 15.7268 27.9025L20.025 20.6055V3.17947H19.192C18.459 3.17947 17.8592 2.57972 17.8592 1.84669C17.8592 1.11367 18.459 0.513916 19.192 0.513916H37.6843C38.4173 0.513916 39.0171 1.11367 39.0171 1.84669C39.0171 2.57972 38.4173 3.17947 37.6843 3.17947H36.8513V20.6389L55.2936 51.9092ZM34.2691 52.4923C33.536 52.4923 32.9363 53.092 32.9363 53.825C32.9363 54.5581 33.536 55.1578 34.2691 55.1578C37.9842 55.1578 41.0162 52.1257 41.0162 48.4106C41.0162 44.6955 37.9842 41.6634 34.2691 41.6634C30.5539 41.6634 27.5219 44.6955 27.5219 48.4106C27.5219 49.1437 28.1216 49.7434 28.8546 49.7434C29.5877 49.7434 30.1874 49.1437 30.1874 48.4106C30.1874 46.1616 32.02 44.329 34.2691 44.329C36.5181 44.329 38.3507 46.1616 38.3507 48.4106C38.3507 50.6597 36.5181 52.4923 34.2691 52.4923ZM65.2561 40.9971C67.5052 40.9971 69.3378 42.8296 69.3378 45.0787C69.3378 45.8117 69.9375 46.4115 70.6706 46.4115C71.4036 46.4115 72.0033 45.8117 72.0033 45.0787C72.0033 41.3636 68.9713 38.3315 65.2561 38.3315C61.541 38.3315 58.509 41.3636 58.509 45.0787C58.509 48.7938 61.541 51.8259 65.2561 51.8259C65.9892 51.8259 66.5889 51.2261 66.5889 50.4931C66.5889 49.7601 65.9892 49.1603 65.2561 49.1603C63.0071 49.1603 61.1745 47.3277 61.1745 45.0787C61.1745 42.8296 63.0071 40.9971 65.2561 40.9971ZM64.5065 21.1886V3.17947H65.1728C65.9059 3.17947 66.5056 2.57972 66.5056 1.84669C66.5056 1.11367 65.9059 0.513916 65.1728 0.513916H46.6805C45.9475 0.513916 45.3478 1.11367 45.3478 1.84669C45.3478 2.57972 45.9475 3.17947 46.6805 3.17947H47.6801V21.1886C46.4973 21.6384 45.3478 22.1716 44.2649 22.8046C43.6318 23.1711 43.3986 23.9875 43.7651 24.6205C44.1316 25.2536 44.9479 25.4868 45.581 25.1203C46.7972 24.4206 48.0966 23.8375 49.4294 23.4044C49.9792 23.2211 50.3457 22.7213 50.3457 22.1382V3.17947H61.8409V22.1382C61.8409 22.7213 62.2074 23.2211 62.7572 23.4044C66.1891 24.5372 69.1545 26.4698 71.5202 28.9687C62.6072 27.7692 58.1591 32.1674 53.2945 34.3665C52.6281 34.6664 52.3282 35.466 52.6281 36.1324C52.9279 36.7988 53.7276 37.0987 54.394 36.7988C59.4752 34.4998 64.4231 29.4852 74.0358 32.2174C81.9992 44.8121 74.8022 61.5551 60.2082 64.4373C59.4919 64.5872 59.0087 65.2869 59.1587 66.0033C59.3086 66.7197 59.9917 67.2028 60.7247 67.0529C71.8867 64.8538 80 54.9912 80 43.596C80 33.5668 73.8192 24.6872 64.5065 21.1886Z" fill="#2E58FF"/>
</svg>
