<svg width="80" height="80" viewBox="0 0 80 80" fill="none" xmlns="http://www.w3.org/2000/svg">
<g clip-path="url(#clip0_207_139)">
<path d="M38.1571 27.4954V27.4904C39.5539 27.4038 40.6573 26.2453 40.6573 24.8285V21.8283C40.6573 20.3548 39.4638 19.1614 37.9904 19.1614H37.3237V7.32705C37.3237 5.85359 36.1302 4.66016 34.6568 4.66016H26.6561C25.1826 4.66016 23.9892 5.85359 23.9892 7.32705V19.1614H23.1558C21.6823 19.1614 20.4889 20.3548 20.4889 21.8283V24.8285C20.4889 26.2453 21.5923 27.4038 22.9891 27.4904V27.4954C9.66797 42.4384 4.81255 59.7749 11.1548 71.1658C12.0665 72.8043 13.4116 74.6811 15.4585 76.538C16.9753 77.9164 18.9604 78.6665 21.0106 78.6665H40.1356C42.1857 78.6665 44.1709 77.9164 45.6877 76.538C47.7346 74.6811 49.0797 72.8043 49.9914 71.1658C56.3336 59.775 51.4784 42.4384 38.1571 27.4954Z" fill="#D1E7FF"/>
<path d="M37.3236 7.32705V19.1614H23.9891V7.32705C23.9891 5.85359 25.1826 4.66016 26.656 4.66016H34.6567C36.1302 4.66016 37.3236 5.85359 37.3236 7.32705Z" fill="#B9DCFF"/>
<path d="M65.7027 1.96492C75.0918 5.90026 73.3883 22.7017 59.6905 18.4947C59.1721 20.6482 57.1403 22.0883 54.9951 21.8766C52.7516 21.6549 50.9997 19.6864 51.0497 17.3679C49.3764 17.0547 46.6545 16.6102 44.6355 16.2526C43.9988 16.14 43.5358 15.5864 43.5358 14.9397V12.2881C43.5358 11.6581 43.9761 11.1107 44.5934 10.9847C46.7635 10.5417 48.8112 9.71908 50.6747 8.54048C49.863 6.96701 50.3264 5.10185 51.6131 4.22011C52.6315 3.52172 54.0417 3.52172 55.1818 4.22011C58.2922 1.49805 62.3975 0.5798 65.7027 1.96492Z" fill="#D1E7FF"/>
<path d="M30.6565 48.1772C34.237 49.3808 37.8127 49.1388 41.3691 47.9139C42.8126 47.4188 44.3944 48.1472 44.9328 49.5757C47.8638 57.3567 47.8603 65.8039 41.6525 71.4392C40.5424 72.4493 39.0856 72.9993 37.5821 72.9993H23.5643C22.0608 72.9993 20.604 72.4493 19.4939 71.4392C13.7159 66.1941 13.2959 58.4946 15.6753 51.1141C16.6532 48.0802 19.4896 45.8204 22.9475 45.8304C26.1146 45.8395 27.9096 47.2488 30.6565 48.1772Z" fill="#B9DCFF"/>
<path d="M14.8996 76.0142C13.1626 74.3306 11.9808 72.6506 11.1548 71.1661C4.81255 59.7751 9.66797 42.4387 22.9891 27.4957V27.4907C23.1003 27.4976 22.9874 27.4961 25.0905 27.4956C26.2177 27.4952 26.8361 28.807 26.1189 29.6767C14.2255 44.0995 10.1193 60.3252 16.1552 71.166C16.5694 71.9102 17.0729 72.7038 17.6912 73.5222C19.1044 75.3933 16.5142 77.579 14.8996 76.0142Z" fill="#E8F3FF"/>
<path d="M20.2727 71.4394C19.7522 71.4394 19.2543 71.2291 18.8868 70.8605C13.6763 65.6348 13.3928 58.1935 15.675 51.1144C16.1649 49.5944 17.0981 48.2754 18.3601 47.3362C20.0299 46.0933 22.2024 48.0069 21.2173 49.8406C21.001 50.2431 20.819 50.669 20.6754 51.1144C18.7234 57.1692 18.6528 63.4486 21.895 68.408C22.7426 69.7043 21.8495 71.4394 20.2727 71.4394Z" fill="#D1E7FF"/>
<path d="M34.7473 6.32697H29.99C28.5171 6.32697 27.3231 7.5209 27.3231 8.99386V17.8279C27.3231 18.5643 26.7261 19.1614 25.9897 19.1614H23.9895V7.32705C23.9895 5.85409 25.1834 4.66016 26.6564 4.66016C26.6564 4.66016 34.7688 4.66182 34.8238 4.66532C35.8819 4.7305 35.8073 6.32697 34.7473 6.32697Z" fill="#D1E7FF"/>
<path d="M40.6573 21.8283V24.8285C40.6573 26.2453 39.5539 27.4047 38.1571 27.4904C37.9989 27.5001 23.0089 27.4916 22.9891 27.4904C21.5923 27.4047 20.4889 26.2453 20.4889 24.8285V21.8283C20.4889 20.3548 21.6823 19.1614 23.1558 19.1614H37.9904C39.4638 19.1614 40.6573 20.3548 40.6573 21.8283Z" fill="#B9DCFF"/>
<path d="M38.1571 19.1665C39.2153 19.2317 39.1407 20.8282 38.0806 20.8282H26.4894C25.0159 20.8282 23.8088 22.0218 23.8225 23.4951C23.8388 25.2671 23.7953 26.0848 23.8293 26.6462C23.8577 27.1139 23.4806 27.5201 22.9891 27.4904C21.5922 27.4061 20.4889 26.2453 20.4889 24.8285V21.8283C20.4889 20.3553 21.6828 19.1614 23.1558 19.1614C23.1556 19.1614 38.1019 19.1632 38.1571 19.1665Z" fill="#D1E7FF"/>
<path d="M47.7709 10.0297C48.7793 9.62304 49.7499 9.1255 50.675 8.54045C49.8632 6.96698 50.3266 5.10182 51.6134 4.22008C52.6318 3.52169 54.0419 3.52169 55.182 4.22008C58.2923 1.49818 62.3976 0.579767 65.7029 1.96489C67.1635 2.5771 66.7307 4.60394 65.278 4.67578C63.1137 4.78279 60.9695 5.64103 59.1577 7.02798C58.7761 7.32001 58.2739 7.38185 57.8201 7.22383C55.2989 6.34593 53.1507 8.47561 53.6839 10.9685C53.8124 11.5695 53.5209 12.1839 52.981 12.4776C51.7647 13.1395 50.4793 13.6582 49.1407 14.0271C46.6148 14.7233 45.346 11.0078 47.7709 10.0297Z" fill="#E8F3FF"/>
<path d="M40.3864 28.0266C41.3708 27.2857 41.991 26.1104 41.991 24.8283V21.8281C41.991 19.6224 40.1965 17.8277 37.9906 17.8277H25.3227V7.327C25.3227 6.59177 25.921 5.99355 26.6562 5.99355H34.6569C35.3921 5.99355 35.9903 6.59177 35.9903 7.327V13.7524C35.9903 14.4888 36.5874 15.0858 37.3238 15.0858C38.0602 15.0858 38.6572 14.4888 38.6572 13.7524V7.327C38.6572 5.12131 36.8627 3.32666 34.6569 3.32666H26.6562C24.4503 3.32666 22.6558 5.12131 22.6558 7.327V17.8601C20.6855 18.1071 19.1557 19.7917 19.1557 21.8281V24.8283C19.1557 27.034 20.9502 28.8287 23.156 28.8287H29.3231V59.9982C29.3231 60.7346 29.9201 61.3316 30.6565 61.3316C31.3929 61.3316 31.99 60.7346 31.99 59.9982V49.9243C35.2749 50.6414 38.586 50.2827 41.8033 49.1752C42.5745 48.9097 43.4008 49.2918 43.6845 50.0453C46.4302 57.3349 46.5005 65.2381 40.7561 70.4524C39.8948 71.2348 38.7679 71.6658 37.5828 71.6658H23.5636C22.3785 71.6658 21.2516 71.2348 20.3898 70.4519C15.042 65.598 14.701 58.4804 16.9449 51.5226C17.7841 48.9207 20.21 47.0089 23.3747 47.1764C24.1131 47.2157 24.7382 46.6512 24.7772 45.9158C24.8164 45.1804 24.252 44.5523 23.5166 44.5133C19.1345 44.28 15.6161 46.9547 14.4068 50.7042C11.8509 58.6294 12.4063 66.8068 18.597 72.4262C19.9501 73.6557 21.7141 74.3327 23.5638 74.3327H37.5829C39.4326 74.3327 41.1966 73.6555 42.5492 72.4266C49.1181 66.4637 49.3416 57.4978 46.1805 49.1052C45.3846 46.9921 43.0806 45.916 40.9356 46.6535C38.0005 47.664 35.0271 47.9851 31.9901 47.1819V27.4954C31.9901 26.759 31.3931 26.1619 30.6567 26.1619H23.1562C22.421 26.1619 21.8228 25.5637 21.8228 24.8285V21.8282C21.8228 21.093 22.421 20.4948 23.1562 20.4948H37.9908C38.726 20.4948 39.3243 21.093 39.3243 21.8282V24.8285C39.3243 25.4245 38.9242 25.9528 38.3513 26.1131C38.301 26.1271 38.2527 26.1446 38.2053 26.1639C37.0409 26.1219 36.3782 27.5037 37.1619 28.383C43.5883 35.5919 48.0837 43.4181 50.162 51.0151C52.6362 60.0585 51.7922 69.1946 44.7919 75.5517C43.5268 76.7006 41.8733 77.3331 40.1362 77.3331H21.0102C19.2729 77.3331 17.6196 76.7004 16.3543 75.5515C4.98967 65.2318 9.96209 47.6849 18.6705 35.114C19.0899 34.5087 18.939 33.6779 18.3336 33.2586C17.7284 32.8392 16.8975 32.99 16.4781 33.5954C11.8578 40.2651 8.79249 47.2607 7.61356 53.8263C6.00659 62.7767 7.76974 71.3591 14.5613 77.526C16.3183 79.1216 18.6083 80.0004 21.01 80.0004H40.1357C42.5374 80.0004 44.8274 79.1218 46.5842 77.5262C54.3385 70.4849 55.4871 60.3757 52.7339 50.3115C50.6846 42.8194 46.4292 35.1479 40.3864 28.0266Z" fill="#2E58FF"/>
<path d="M30.6565 11.1606V12.8274C30.6565 13.5638 31.2535 14.1609 31.9899 14.1609C32.7263 14.1609 33.3234 13.5638 33.3234 12.8274V11.1606C33.3234 10.4242 32.7263 9.82715 31.9899 9.82715C31.2535 9.82715 30.6565 10.4244 30.6565 11.1606Z" fill="#2E58FF"/>
<path d="M72.1088 6.82242C71.0052 4.02685 68.9131 1.86516 66.2175 0.7354C62.7269 -0.727725 58.4065 0.0323397 54.9909 2.65323C51.4979 1.37812 48.2488 4.35988 49.0524 7.94918C47.289 8.91677 45.3739 9.55482 43.3445 9.84968C42.6158 9.95569 42.1109 10.6322 42.2168 11.361C42.3228 12.0899 42.9993 12.5954 43.7282 12.4889C46.4846 12.0882 49.0617 11.1385 51.3877 9.66616C51.9714 9.29663 52.1763 8.5424 51.8598 7.92818C51.3767 6.9916 51.5999 5.84534 52.368 5.31879C52.9479 4.92092 53.7996 4.93626 54.4875 5.35696C54.985 5.66082 55.6223 5.60698 56.061 5.22262C58.8082 2.81874 62.3903 2.02318 65.1867 3.19478C69.5854 5.03827 71.1261 10.1825 69.8051 13.8307C68.5042 17.4235 64.8697 18.6904 60.0826 17.2206C59.3476 16.9951 58.575 17.4362 58.3948 18.1827C58.0338 19.6807 56.6305 20.6989 55.1262 20.5494C53.5531 20.3939 52.3481 19.0095 52.3835 17.3973C52.3976 16.7448 51.9376 16.1779 51.2961 16.0575C50.2835 15.8677 44.7735 14.9286 43.7822 14.7426C43.0587 14.6073 42.3616 15.0838 42.2259 15.8075C42.0903 16.5314 42.567 17.2281 43.2909 17.364C44.3036 17.5538 48.9754 18.3501 49.8088 18.4979C50.3006 21.2001 52.6515 23.2308 55.4154 23.2308C57.5636 23.2307 59.5316 21.9922 60.5073 20.0987C70.4565 22.4456 74.9294 13.9674 72.1088 6.82242Z" fill="#2E58FF"/>
</g>
<defs>
<clipPath id="clip0_207_139">
<rect width="80" height="80" fill="white"/>
</clipPath>
</defs>
</svg>
