<svg width="80" height="80" viewBox="0 0 80 80" fill="none" xmlns="http://www.w3.org/2000/svg">
<g clip-path="url(#clip0_207_986)">
<path d="M69.706 32.3316L64.7175 25.648L67.3959 17.7511C68.4743 14.5693 65.4358 11.5309 62.2541 12.6092L54.3571 15.2877L47.6736 10.3008C44.9802 8.29075 41.1517 10.2408 41.195 13.6009L41.3017 21.9395L34.4931 26.7547C31.7497 28.6948 32.4214 32.9382 35.6299 33.9366L40.7219 35.5193C40.7052 35.5142 41.5809 34.7556 2.71892 68.8061C1.1972 70.1395 0.877193 72.3996 2.00223 74.0813C3.0406 75.6363 4.36398 76.948 5.87069 77.9647C7.56908 79.1115 9.85249 78.8248 11.2009 77.2831L44.4886 39.2918C43.9721 37.6294 45.5292 42.6407 46.0687 44.3753C47.0666 47.5839 51.3105 48.2554 53.2506 45.512L58.0658 38.7034L66.4044 38.8101C69.7643 38.8534 71.7144 35.025 69.706 32.3316Z" fill="#D1E7FF"/>
<path d="M8.17232 78.6649C7.37729 78.6682 6.57393 78.4398 5.87057 77.9648C4.36385 76.9481 3.04048 75.6364 2.00211 74.0814C0.877071 72.3996 1.19708 70.1396 2.7188 68.8062L9.22235 63.1077C9.8107 63.9344 10.4357 64.7294 11.0941 65.4911C8.22398 68.0562 6.25058 69.8196 5.88557 70.1396C4.36385 71.4729 4.04384 73.733 5.16888 75.4147C6.00391 76.6648 7.02211 77.7565 8.17232 78.6649Z" fill="#E8F3FF"/>
<path d="M43.5934 36.4119L44.4885 39.292L16.8925 70.788C13.9641 68.693 11.359 66.1079 9.22229 63.1078L40.7133 35.5168L43.5934 36.4119Z" fill="#B9DCFF"/>
<path d="M43.5934 36.4119C42.3301 37.5186 21.1794 56.4692 11.094 65.4912C10.4357 64.7295 9.81064 63.9345 9.22229 63.1078L40.7133 35.5168L43.5934 36.4119Z" fill="#D1E7FF"/>
<path d="M69.706 32.3316L64.7175 25.648L67.3959 17.7511C68.4743 14.5693 65.4359 11.5309 62.2541 12.6092L54.3572 15.2877L47.6736 10.3008C44.9802 8.29075 41.1517 10.2408 41.1951 13.6009L41.3017 21.9395L34.4932 26.7547C31.7497 28.6948 32.4214 32.9382 35.6299 33.9366L43.5935 36.4117L46.0686 44.3753C47.0669 47.5837 51.3104 48.2554 53.2505 45.512L58.0656 38.7034L66.4042 38.8101C69.7644 38.8534 71.7144 35.025 69.706 32.3316Z" fill="#D1E7FF"/>
<path d="M67.0291 14.3526L59.3572 16.9543L56.2587 14.6426L62.2539 12.6092C64.2042 11.9475 66.1007 12.8342 67.0291 14.3526Z" fill="#E8F3FF"/>
<path d="M46.195 15.2677L46.3017 23.6063L39.4932 28.4214C37.0181 30.1715 37.3231 33.7966 39.7615 35.2216L35.6297 33.9366C32.4213 32.9382 31.7496 28.6948 34.493 26.7547L41.3015 21.9395L41.1949 13.6009C41.1515 10.2408 44.98 8.29075 47.6734 10.3008L49.0635 11.3375C47.4536 11.8359 46.1702 13.3143 46.195 15.2677Z" fill="#E8F3FF"/>
<path d="M57.5389 26.9314L61.8058 32.6483L54.6722 32.5583L50.5537 38.3818L48.4353 31.5699L41.6234 29.4515L47.4469 25.333L47.3569 18.1995L53.0738 22.4663L59.8307 20.1745L57.5389 26.9314Z" fill="#E8F3FF"/>
<path d="M66.2057 25.4128L68.6586 18.1794C70.0922 13.9517 66.0522 9.91311 61.8259 11.3468L54.5927 13.7999L48.4711 9.23175C44.893 6.56166 39.8043 9.15658 39.8617 13.6186L39.9593 21.2558L33.7231 25.666C30.0782 28.2437 30.9735 33.8851 35.2347 35.21L38.0434 36.083L1.84072 67.803C-0.187176 69.5798 -0.594357 72.5979 0.89336 74.8231C2.01806 76.5055 3.44178 77.9345 5.12483 79.0707C7.37741 80.5911 10.42 80.1983 12.2039 78.1626L40.6289 45.7208C41.1142 45.167 41.0587 44.3244 40.5048 43.8392C39.951 43.3537 39.1086 43.4094 38.6233 43.9632L16.7012 68.9831C15.6492 68.1682 14.6453 67.286 13.7076 66.3495C13.1864 65.8293 12.3424 65.8298 11.8219 66.3508C11.3015 66.872 11.3022 67.7162 11.8232 68.2366C12.8021 69.2139 13.847 70.1366 14.9408 70.9923L10.1983 76.405C9.29664 77.4342 7.75675 77.63 6.61722 76.8603C5.22217 75.9186 4.0423 74.7344 3.1106 73.3409C2.36424 72.2247 2.57392 70.7061 3.59845 69.8088L41.0304 37.0112L42.5284 37.4767L44.7955 44.7706C46.1227 49.0396 51.7656 49.9218 54.3396 46.2822L58.7496 40.0459L66.3869 40.1436C70.8704 40.1959 73.4341 35.0989 70.7737 31.534L66.2057 25.4128ZM66.421 37.4772L58.0828 37.3705C57.6381 37.3597 57.2304 37.5754 56.9769 37.9339L52.1622 44.7424C50.8515 46.5957 48.0094 46.1265 47.3421 43.9789L44.8668 36.0158C44.7365 35.5968 44.4083 35.2688 43.9893 35.1383L36.0262 32.663C33.8761 31.9948 33.4123 29.1517 35.2627 27.843L42.0712 23.0282C42.4294 22.7747 42.6403 22.3612 42.6346 21.9223L42.5279 13.5841C42.4992 11.3338 45.059 10.0126 46.8761 11.3685L53.5593 16.356C53.911 16.6185 54.3688 16.691 54.785 16.5502L62.6823 13.8721C64.8203 13.1467 66.8592 15.1808 66.133 17.3227L63.4551 25.2201C63.3141 25.6358 63.3868 26.0941 63.6493 26.4458C68.8436 33.4041 68.6366 33.1125 68.6366 33.1292C69.9867 34.9381 68.6823 37.5067 66.421 37.4772Z" fill="#2E58FF"/>
<path d="M59.0266 26.6959L61.0927 20.6037C61.4471 19.5585 60.4469 18.5585 59.4017 18.9127L53.3095 20.9787L48.1536 17.1313C47.2707 16.4716 46.0089 17.1131 46.023 18.217L46.1052 24.6495L40.8527 28.3638C39.9523 29.0008 40.1728 30.398 41.2267 30.7259L47.3699 32.6353L49.2793 38.7785C49.6068 39.8314 51.0042 40.0539 51.6412 39.1525L55.7605 33.3278C56.1859 32.7266 56.043 31.8944 55.4419 31.4694C54.8405 31.0436 54.0083 31.1869 53.5835 31.7881L51.0242 35.407L49.7085 31.1742C49.5782 30.7552 49.25 30.4272 48.831 30.2967L44.5983 28.981L48.2171 26.4219C48.5753 26.1684 48.7861 25.7549 48.7805 25.316L48.7238 20.8841L52.2761 23.5348C52.6276 23.7973 53.0856 23.8697 53.5018 23.729L57.6993 22.3056L56.2759 26.5031C56.1349 26.9188 56.2075 27.3771 56.4701 27.7288L60.7369 33.4465C61.1772 34.037 62.0129 34.1583 62.6028 33.7176C63.1929 33.2773 63.3144 32.4419 62.8739 31.8518L59.0266 26.6959Z" fill="#2E58FF"/>
<path d="M77.4424 2.56275C76.9216 2.04223 76.0775 2.04223 75.5567 2.56275L69.965 8.15444C69.1225 8.9973 69.7307 10.4307 70.9079 10.4307C71.2492 10.4307 71.5904 10.3005 71.8507 10.0402L77.4424 4.44848C77.9631 3.92763 77.9631 3.0836 77.4424 2.56275Z" fill="#2E58FF"/>
<path d="M58.8193 7.45165C59.5178 7.68899 60.2745 7.31415 60.5107 6.61829L62.159 1.76796C62.3961 1.0706 62.023 0.313245 61.3257 0.0765705C60.6278 -0.160771 59.8708 0.212575 59.6343 0.909932L57.9859 5.76026C57.7491 6.45745 58.1221 7.21481 58.8193 7.45165Z" fill="#2E58FF"/>
<path d="M74.245 22.0192L79.0953 20.3708C79.7927 20.1339 80.1657 19.3766 79.9287 18.6794C79.6917 17.9822 78.9348 17.6088 78.2373 17.846L73.387 19.4944C72.6896 19.7312 72.3166 20.4886 72.5536 21.1858C72.7906 21.8833 73.5478 22.2562 74.245 22.0192Z" fill="#2E58FF"/>
<path d="M38.5358 5.86881C38.9106 6.504 39.7285 6.71334 40.3617 6.33983C40.996 5.96582 41.2069 5.14829 40.8327 4.51393L38.5606 0.661473C38.1866 0.0274515 37.3696 -0.183722 36.7347 0.190457C36.1004 0.564469 35.8895 1.382 36.2637 2.01635L38.5358 5.86881Z" fill="#2E58FF"/>
<path d="M22.5384 35.6861C22.7307 35.6861 22.3284 35.7575 28.0744 34.5739C28.7957 34.4253 29.2599 33.7202 29.1116 32.999C28.9633 32.2778 28.2586 31.8147 27.5367 31.9618L22.2709 33.0464C21.5495 33.195 21.0853 33.9001 21.2337 34.6213C21.3635 35.2521 21.9187 35.6861 22.5384 35.6861Z" fill="#2E58FF"/>
<path d="M28.5525 18.2261C33.174 20.0929 32.9811 20.0552 33.337 20.0552C33.8645 20.0552 34.364 19.74 34.5737 19.221C34.8495 18.5381 34.5198 17.761 33.837 17.4853L29.5515 15.7537C28.8683 15.4772 28.0915 15.8077 27.8158 16.4904C27.5398 17.1733 27.8696 17.9505 28.5525 18.2261Z" fill="#2E58FF"/>
<path d="M79.3435 41.4444L75.491 39.1723C74.8565 38.7978 74.0393 39.0092 73.6653 39.6435C73.2911 40.2779 73.5021 41.0952 74.1365 41.4692L77.9889 43.7413C78.6188 44.1132 79.4383 43.9083 79.8147 43.2701C80.1888 42.6359 79.978 41.8184 79.3435 41.4444Z" fill="#2E58FF"/>
<path d="M47.006 50.8937C46.2839 50.7457 45.5795 51.2097 45.4312 51.9309L44.3466 57.1968C44.1768 58.0223 44.8071 58.7993 45.654 58.7993C46.2737 58.7993 46.8289 58.3651 46.9587 57.7344L48.0432 52.4686C48.1918 51.7476 47.7276 51.0424 47.006 50.8937Z" fill="#2E58FF"/>
<path d="M62.5199 46.1682C62.2442 45.4855 61.4677 45.1548 60.7842 45.4315C60.1013 45.7072 59.7716 46.4844 60.0475 47.1673L61.779 51.4527C61.9887 51.9717 62.4882 52.2869 63.0157 52.2869C63.9548 52.2869 64.6068 51.3331 64.2514 50.4537L62.5199 46.1682Z" fill="#2E58FF"/>
</g>
<defs>
<clipPath id="clip0_207_986">
<rect width="80" height="80" fill="white"/>
</clipPath>
</defs>
</svg>
