<svg width="20" height="20" viewBox="0 0 20 20" fill="none" xmlns="http://www.w3.org/2000/svg">
<path d="M16.2939 2.49745C16.084 2.50722 15.8862 2.56825 15.7104 2.63661H15.708C15.5298 2.70741 14.6826 3.06386 13.396 3.60341C12.1094 4.1454 10.4394 4.84853 8.78172 5.54677C5.47117 6.94081 2.21678 8.31288 2.21678 8.31288L2.25584 8.29823C2.25584 8.29823 2.03123 8.37148 1.79685 8.53261C1.67723 8.61073 1.54539 8.71816 1.43064 8.88661C1.3159 9.05507 1.22312 9.31386 1.2573 9.57997C1.31346 10.0316 1.60643 10.3026 1.81639 10.4516C2.02879 10.6029 2.23143 10.6737 2.23143 10.6737H2.23631L5.28807 11.7016C5.42479 12.141 6.21824 14.7484 6.40867 15.349C6.52098 15.7079 6.63084 15.9325 6.76756 16.1034C6.83348 16.1913 6.9116 16.2645 7.00437 16.3231C7.041 16.3451 7.08006 16.3622 7.11912 16.3768C7.13133 16.3842 7.14354 16.3866 7.15818 16.3891L7.12644 16.3817C7.13621 16.3842 7.14354 16.3915 7.15086 16.3939C7.17527 16.4013 7.19236 16.4037 7.2241 16.4086C7.7075 16.5551 8.09568 16.2548 8.09568 16.2548L8.11766 16.2377L9.91941 14.5971L12.9394 16.914L13.0078 16.9433C13.6377 17.2191 14.2749 17.0653 14.6118 16.7943C14.9512 16.5209 15.083 16.1718 15.083 16.1718L15.105 16.1156L17.4389 4.16005C17.5049 3.86464 17.522 3.58876 17.4487 3.32021C17.3755 3.05165 17.1875 2.80019 16.9604 2.66591C16.7309 2.52919 16.5039 2.48769 16.2939 2.49745ZM16.2305 3.77919C16.228 3.81825 16.2353 3.81337 16.2182 3.88905V3.89638L13.9062 15.7274C13.8965 15.7445 13.8794 15.7811 13.833 15.8178C13.7842 15.8568 13.7451 15.8812 13.5425 15.8007L9.84861 12.9686L7.61717 15.0023L8.08592 12.0092C8.08592 12.0092 13.8721 6.61611 14.1211 6.38417C14.3701 6.15224 14.2871 6.10341 14.2871 6.10341C14.3042 5.82021 13.9111 6.0204 13.9111 6.0204L6.30125 10.7348L6.29881 10.7226L2.65135 9.49452V9.49208C2.64891 9.49208 2.64402 9.48964 2.64158 9.48964C2.64402 9.48964 2.66111 9.48232 2.66111 9.48232L2.68064 9.47255L2.70018 9.46523C2.70018 9.46523 5.95701 8.09316 9.26756 6.69911C10.9253 6.00087 12.5952 5.29775 13.8794 4.75575C15.1636 4.2162 16.1133 3.82069 16.167 3.79872C16.2182 3.77919 16.1938 3.77919 16.2305 3.77919Z" fill="black"/>
</svg>
