<svg width="20" height="20" viewBox="0 0 20 20" fill="none" xmlns="http://www.w3.org/2000/svg">
<mask id="path-1-outside-1_72_664" maskUnits="userSpaceOnUse" x="-0.791626" y="2.95825" width="21" height="14" fill="black">
<rect fill="white" x="-0.791626" y="2.95825" width="21" height="14"/>
<path fill-rule="evenodd" clip-rule="evenodd" d="M19.5042 14.0541C19.051 13.1412 18.4537 12.3073 17.7355 11.5843C17.491 11.3002 17.2045 11.0198 16.9807 10.8009L16.9495 10.7703C16.834 10.6573 16.7387 10.5636 16.6607 10.4828C17.6428 9.11717 18.4834 7.65488 19.1692 6.11844L19.1969 6.05644L19.2163 5.99139C19.3064 5.68898 19.4102 5.11392 19.043 4.59423C18.6634 4.05708 18.0555 3.9602 17.6485 3.9602H15.776C15.3856 3.94231 14.999 4.04784 14.6715 4.2624C14.3415 4.47858 14.0891 4.7939 13.9502 5.1625C13.547 6.12308 13.0424 7.03675 12.4456 7.88824V5.69383C12.4456 5.41017 12.419 4.93566 12.1152 4.53516C11.7515 4.05563 11.2256 3.9602 10.8605 3.9602H7.88927C7.50647 3.95135 7.13416 4.08823 6.84804 4.34374C6.55504 4.60541 6.37547 4.97093 6.34743 5.36278L6.34478 5.39989V5.43711C6.34478 5.84168 6.50509 6.1401 6.63317 6.32779C6.69051 6.41181 6.75184 6.4883 6.79058 6.53661L6.79952 6.54776C6.84083 6.59928 6.86841 6.63366 6.89608 6.6713C6.96887 6.77032 7.07357 6.92299 7.1032 7.31804V8.5455C6.59096 7.70344 6.05059 6.58289 5.64401 5.38612L5.63777 5.36775L5.63085 5.34963C5.52947 5.08411 5.36687 4.69778 5.04122 4.40214C4.66077 4.05676 4.21079 3.9602 3.80156 3.9602H1.9016C1.48759 3.9602 0.988482 4.05706 0.616072 4.44991C0.249852 4.83624 0.208374 5.29914 0.208374 5.54527V5.65621L0.23174 5.76466C0.757994 8.20726 1.84234 10.4947 3.39959 12.448C4.10561 13.5613 5.06227 14.4946 6.19348 15.1728C7.34274 15.862 8.63929 16.2682 9.97629 16.358L10.0111 16.3603H10.0461C10.651 16.3603 11.2815 16.3082 11.7557 15.9922C12.3954 15.5659 12.4456 14.9113 12.4456 14.585V13.6368C12.6098 13.7694 12.8135 13.9481 13.0628 14.1882C13.3642 14.4898 13.6042 14.7513 13.81 14.9794L13.9199 15.1016C14.0797 15.2796 14.2377 15.4555 14.381 15.5995C14.561 15.7805 14.783 15.98 15.0621 16.1273C15.3643 16.2869 15.6815 16.3591 16.0184 16.3591H17.9196C18.3201 16.3591 18.8946 16.2643 19.2985 15.7961C19.7387 15.2858 19.7051 14.6603 19.5667 14.2108L19.5418 14.1299L19.5042 14.0541ZM14.7381 14.1421C14.5241 13.9048 14.266 13.6236 13.9399 13.2975L13.9372 13.2948C12.8071 12.2053 12.279 12.0154 11.9057 12.0154C11.7071 12.0154 11.4874 12.0378 11.3448 12.2153C11.2775 12.2992 11.2421 12.4003 11.2223 12.5058C11.2025 12.611 11.1956 12.7346 11.1956 12.8753V14.585C11.1956 14.7973 11.1607 14.8865 11.0625 14.952C10.9317 15.0392 10.6521 15.1098 10.0531 15.1103C8.91612 15.0328 7.81372 14.6869 6.83628 14.1008C5.85685 13.5136 5.03095 12.702 4.4266 11.733L4.42002 11.7225L4.41224 11.7128C2.96118 9.90667 1.95007 7.78801 1.45862 5.52417C1.46129 5.41504 1.48493 5.35029 1.52324 5.30988C1.56272 5.26824 1.65837 5.2102 1.9016 5.2102H3.80156C4.01291 5.2102 4.12229 5.25618 4.20102 5.32764C4.29027 5.40867 4.36767 5.54626 4.46172 5.79194C4.92806 7.16359 5.55869 8.44634 6.15587 9.3895C6.45436 9.86092 6.74812 10.2533 7.01278 10.5306C7.1449 10.6691 7.27447 10.7838 7.39812 10.8653C7.51781 10.9443 7.65349 11.0065 7.79302 11.0065C7.86666 11.0065 7.95277 10.9989 8.0357 10.9622C8.1249 10.9228 8.19413 10.8569 8.24302 10.7687C8.32951 10.6127 8.35321 10.3816 8.35321 10.0788V7.27574L8.35279 7.26917C8.30959 6.58722 8.1037 6.20361 7.90322 5.9309C7.85927 5.87114 7.81595 5.81715 7.77803 5.76991L7.76765 5.75697C7.72602 5.70505 7.69289 5.6631 7.66567 5.62321C7.6158 5.55012 7.59647 5.49916 7.59488 5.44455C7.60139 5.37974 7.63194 5.31959 7.68067 5.27608C7.73124 5.23091 7.79742 5.20739 7.86517 5.2102H10.8605C11.0323 5.2102 11.0901 5.2521 11.1192 5.29049C11.1603 5.34467 11.1956 5.45736 11.1956 5.69383V9.46767C11.1956 9.91592 11.4023 10.2194 11.7024 10.2194C12.0477 10.2194 12.2966 10.0099 12.732 9.57459L12.7392 9.56734L12.7457 9.55934C13.7214 8.36959 14.5188 7.04407 15.1123 5.62444L15.116 5.6138C15.1607 5.48836 15.2451 5.38097 15.3565 5.308C15.4679 5.23504 15.6 5.20052 15.7329 5.20971L15.7401 5.2102H17.6485C17.9088 5.2102 17.9945 5.27644 18.0221 5.31562C18.0515 5.35729 18.072 5.44662 18.022 5.62179C17.3378 7.15214 16.4916 8.60475 15.4984 9.95525L15.4921 9.96475C15.3957 10.1123 15.29 10.2754 15.2746 10.4628C15.2582 10.6639 15.3453 10.8468 15.4975 11.0428C15.6085 11.2069 15.8375 11.431 16.0697 11.6583L16.0916 11.6798C16.3351 11.9181 16.5989 12.1763 16.8106 12.4263L16.8163 12.4328L16.8225 12.439C17.4537 13.0687 17.9786 13.7966 18.3767 14.5943C18.4403 14.8114 18.4014 14.9224 18.352 14.9797C18.2942 15.0467 18.1647 15.1091 17.9196 15.1091H16.0184C15.8699 15.1091 15.7553 15.0798 15.6458 15.022C15.5317 14.9618 15.4144 14.8659 15.2672 14.718C15.1487 14.5988 15.0192 14.4547 14.8612 14.2789C14.822 14.2353 14.7811 14.1897 14.7381 14.1421Z"/>
</mask>
<path fill-rule="evenodd" clip-rule="evenodd" d="M19.5042 14.0541C19.051 13.1412 18.4537 12.3073 17.7355 11.5843C17.491 11.3002 17.2045 11.0198 16.9807 10.8009L16.9495 10.7703C16.834 10.6573 16.7387 10.5636 16.6607 10.4828C17.6428 9.11717 18.4834 7.65488 19.1692 6.11844L19.1969 6.05644L19.2163 5.99139C19.3064 5.68898 19.4102 5.11392 19.043 4.59423C18.6634 4.05708 18.0555 3.9602 17.6485 3.9602H15.776C15.3856 3.94231 14.999 4.04784 14.6715 4.2624C14.3415 4.47858 14.0891 4.7939 13.9502 5.1625C13.547 6.12308 13.0424 7.03675 12.4456 7.88824V5.69383C12.4456 5.41017 12.419 4.93566 12.1152 4.53516C11.7515 4.05563 11.2256 3.9602 10.8605 3.9602H7.88927C7.50647 3.95135 7.13416 4.08823 6.84804 4.34374C6.55504 4.60541 6.37547 4.97093 6.34743 5.36278L6.34478 5.39989V5.43711C6.34478 5.84168 6.50509 6.1401 6.63317 6.32779C6.69051 6.41181 6.75184 6.4883 6.79058 6.53661L6.79952 6.54776C6.84083 6.59928 6.86841 6.63366 6.89608 6.6713C6.96887 6.77032 7.07357 6.92299 7.1032 7.31804V8.5455C6.59096 7.70344 6.05059 6.58289 5.64401 5.38612L5.63777 5.36775L5.63085 5.34963C5.52947 5.08411 5.36687 4.69778 5.04122 4.40214C4.66077 4.05676 4.21079 3.9602 3.80156 3.9602H1.9016C1.48759 3.9602 0.988482 4.05706 0.616072 4.44991C0.249852 4.83624 0.208374 5.29914 0.208374 5.54527V5.65621L0.23174 5.76466C0.757994 8.20726 1.84234 10.4947 3.39959 12.448C4.10561 13.5613 5.06227 14.4946 6.19348 15.1728C7.34274 15.862 8.63929 16.2682 9.97629 16.358L10.0111 16.3603H10.0461C10.651 16.3603 11.2815 16.3082 11.7557 15.9922C12.3954 15.5659 12.4456 14.9113 12.4456 14.585V13.6368C12.6098 13.7694 12.8135 13.9481 13.0628 14.1882C13.3642 14.4898 13.6042 14.7513 13.81 14.9794L13.9199 15.1016C14.0797 15.2796 14.2377 15.4555 14.381 15.5995C14.561 15.7805 14.783 15.98 15.0621 16.1273C15.3643 16.2869 15.6815 16.3591 16.0184 16.3591H17.9196C18.3201 16.3591 18.8946 16.2643 19.2985 15.7961C19.7387 15.2858 19.7051 14.6603 19.5667 14.2108L19.5418 14.1299L19.5042 14.0541ZM14.7381 14.1421C14.5241 13.9048 14.266 13.6236 13.9399 13.2975L13.9372 13.2948C12.8071 12.2053 12.279 12.0154 11.9057 12.0154C11.7071 12.0154 11.4874 12.0378 11.3448 12.2153C11.2775 12.2992 11.2421 12.4003 11.2223 12.5058C11.2025 12.611 11.1956 12.7346 11.1956 12.8753V14.585C11.1956 14.7973 11.1607 14.8865 11.0625 14.952C10.9317 15.0392 10.6521 15.1098 10.0531 15.1103C8.91612 15.0328 7.81372 14.6869 6.83628 14.1008C5.85685 13.5136 5.03095 12.702 4.4266 11.733L4.42002 11.7225L4.41224 11.7128C2.96118 9.90667 1.95007 7.78801 1.45862 5.52417C1.46129 5.41504 1.48493 5.35029 1.52324 5.30988C1.56272 5.26824 1.65837 5.2102 1.9016 5.2102H3.80156C4.01291 5.2102 4.12229 5.25618 4.20102 5.32764C4.29027 5.40867 4.36767 5.54626 4.46172 5.79194C4.92806 7.16359 5.55869 8.44634 6.15587 9.3895C6.45436 9.86092 6.74812 10.2533 7.01278 10.5306C7.1449 10.6691 7.27447 10.7838 7.39812 10.8653C7.51781 10.9443 7.65349 11.0065 7.79302 11.0065C7.86666 11.0065 7.95277 10.9989 8.0357 10.9622C8.1249 10.9228 8.19413 10.8569 8.24302 10.7687C8.32951 10.6127 8.35321 10.3816 8.35321 10.0788V7.27574L8.35279 7.26917C8.30959 6.58722 8.1037 6.20361 7.90322 5.9309C7.85927 5.87114 7.81595 5.81715 7.77803 5.76991L7.76765 5.75697C7.72602 5.70505 7.69289 5.6631 7.66567 5.62321C7.6158 5.55012 7.59647 5.49916 7.59488 5.44455C7.60139 5.37974 7.63194 5.31959 7.68067 5.27608C7.73124 5.23091 7.79742 5.20739 7.86517 5.2102H10.8605C11.0323 5.2102 11.0901 5.2521 11.1192 5.29049C11.1603 5.34467 11.1956 5.45736 11.1956 5.69383V9.46767C11.1956 9.91592 11.4023 10.2194 11.7024 10.2194C12.0477 10.2194 12.2966 10.0099 12.732 9.57459L12.7392 9.56734L12.7457 9.55934C13.7214 8.36959 14.5188 7.04407 15.1123 5.62444L15.116 5.6138C15.1607 5.48836 15.2451 5.38097 15.3565 5.308C15.4679 5.23504 15.6 5.20052 15.7329 5.20971L15.7401 5.2102H17.6485C17.9088 5.2102 17.9945 5.27644 18.0221 5.31562C18.0515 5.35729 18.072 5.44662 18.022 5.62179C17.3378 7.15214 16.4916 8.60475 15.4984 9.95525L15.4921 9.96475C15.3957 10.1123 15.29 10.2754 15.2746 10.4628C15.2582 10.6639 15.3453 10.8468 15.4975 11.0428C15.6085 11.2069 15.8375 11.431 16.0697 11.6583L16.0916 11.6798C16.3351 11.9181 16.5989 12.1763 16.8106 12.4263L16.8163 12.4328L16.8225 12.439C17.4537 13.0687 17.9786 13.7966 18.3767 14.5943C18.4403 14.8114 18.4014 14.9224 18.352 14.9797C18.2942 15.0467 18.1647 15.1091 17.9196 15.1091H16.0184C15.8699 15.1091 15.7553 15.0798 15.6458 15.022C15.5317 14.9618 15.4144 14.8659 15.2672 14.718C15.1487 14.5988 15.0192 14.4547 14.8612 14.2789C14.822 14.2353 14.7811 14.1897 14.7381 14.1421Z" fill="black"/>
<path fill-rule="evenodd" clip-rule="evenodd" d="M19.5042 14.0541C19.051 13.1412 18.4537 12.3073 17.7355 11.5843C17.491 11.3002 17.2045 11.0198 16.9807 10.8009L16.9495 10.7703C16.834 10.6573 16.7387 10.5636 16.6607 10.4828C17.6428 9.11717 18.4834 7.65488 19.1692 6.11844L19.1969 6.05644L19.2163 5.99139C19.3064 5.68898 19.4102 5.11392 19.043 4.59423C18.6634 4.05708 18.0555 3.9602 17.6485 3.9602H15.776C15.3856 3.94231 14.999 4.04784 14.6715 4.2624C14.3415 4.47858 14.0891 4.7939 13.9502 5.1625C13.547 6.12308 13.0424 7.03675 12.4456 7.88824V5.69383C12.4456 5.41017 12.419 4.93566 12.1152 4.53516C11.7515 4.05563 11.2256 3.9602 10.8605 3.9602H7.88927C7.50647 3.95135 7.13416 4.08823 6.84804 4.34374C6.55504 4.60541 6.37547 4.97093 6.34743 5.36278L6.34478 5.39989V5.43711C6.34478 5.84168 6.50509 6.1401 6.63317 6.32779C6.69051 6.41181 6.75184 6.4883 6.79058 6.53661L6.79952 6.54776C6.84083 6.59928 6.86841 6.63366 6.89608 6.6713C6.96887 6.77032 7.07357 6.92299 7.1032 7.31804V8.5455C6.59096 7.70344 6.05059 6.58289 5.64401 5.38612L5.63777 5.36775L5.63085 5.34963C5.52947 5.08411 5.36687 4.69778 5.04122 4.40214C4.66077 4.05676 4.21079 3.9602 3.80156 3.9602H1.9016C1.48759 3.9602 0.988482 4.05706 0.616072 4.44991C0.249852 4.83624 0.208374 5.29914 0.208374 5.54527V5.65621L0.23174 5.76466C0.757994 8.20726 1.84234 10.4947 3.39959 12.448C4.10561 13.5613 5.06227 14.4946 6.19348 15.1728C7.34274 15.862 8.63929 16.2682 9.97629 16.358L10.0111 16.3603H10.0461C10.651 16.3603 11.2815 16.3082 11.7557 15.9922C12.3954 15.5659 12.4456 14.9113 12.4456 14.585V13.6368C12.6098 13.7694 12.8135 13.9481 13.0628 14.1882C13.3642 14.4898 13.6042 14.7513 13.81 14.9794L13.9199 15.1016C14.0797 15.2796 14.2377 15.4555 14.381 15.5995C14.561 15.7805 14.783 15.98 15.0621 16.1273C15.3643 16.2869 15.6815 16.3591 16.0184 16.3591H17.9196C18.3201 16.3591 18.8946 16.2643 19.2985 15.7961C19.7387 15.2858 19.7051 14.6603 19.5667 14.2108L19.5418 14.1299L19.5042 14.0541ZM14.7381 14.1421C14.5241 13.9048 14.266 13.6236 13.9399 13.2975L13.9372 13.2948C12.8071 12.2053 12.279 12.0154 11.9057 12.0154C11.7071 12.0154 11.4874 12.0378 11.3448 12.2153C11.2775 12.2992 11.2421 12.4003 11.2223 12.5058C11.2025 12.611 11.1956 12.7346 11.1956 12.8753V14.585C11.1956 14.7973 11.1607 14.8865 11.0625 14.952C10.9317 15.0392 10.6521 15.1098 10.0531 15.1103C8.91612 15.0328 7.81372 14.6869 6.83628 14.1008C5.85685 13.5136 5.03095 12.702 4.4266 11.733L4.42002 11.7225L4.41224 11.7128C2.96118 9.90667 1.95007 7.78801 1.45862 5.52417C1.46129 5.41504 1.48493 5.35029 1.52324 5.30988C1.56272 5.26824 1.65837 5.2102 1.9016 5.2102H3.80156C4.01291 5.2102 4.12229 5.25618 4.20102 5.32764C4.29027 5.40867 4.36767 5.54626 4.46172 5.79194C4.92806 7.16359 5.55869 8.44634 6.15587 9.3895C6.45436 9.86092 6.74812 10.2533 7.01278 10.5306C7.1449 10.6691 7.27447 10.7838 7.39812 10.8653C7.51781 10.9443 7.65349 11.0065 7.79302 11.0065C7.86666 11.0065 7.95277 10.9989 8.0357 10.9622C8.1249 10.9228 8.19413 10.8569 8.24302 10.7687C8.32951 10.6127 8.35321 10.3816 8.35321 10.0788V7.27574L8.35279 7.26917C8.30959 6.58722 8.1037 6.20361 7.90322 5.9309C7.85927 5.87114 7.81595 5.81715 7.77803 5.76991L7.76765 5.75697C7.72602 5.70505 7.69289 5.6631 7.66567 5.62321C7.6158 5.55012 7.59647 5.49916 7.59488 5.44455C7.60139 5.37974 7.63194 5.31959 7.68067 5.27608C7.73124 5.23091 7.79742 5.20739 7.86517 5.2102H10.8605C11.0323 5.2102 11.0901 5.2521 11.1192 5.29049C11.1603 5.34467 11.1956 5.45736 11.1956 5.69383V9.46767C11.1956 9.91592 11.4023 10.2194 11.7024 10.2194C12.0477 10.2194 12.2966 10.0099 12.732 9.57459L12.7392 9.56734L12.7457 9.55934C13.7214 8.36959 14.5188 7.04407 15.1123 5.62444L15.116 5.6138C15.1607 5.48836 15.2451 5.38097 15.3565 5.308C15.4679 5.23504 15.6 5.20052 15.7329 5.20971L15.7401 5.2102H17.6485C17.9088 5.2102 17.9945 5.27644 18.0221 5.31562C18.0515 5.35729 18.072 5.44662 18.022 5.62179C17.3378 7.15214 16.4916 8.60475 15.4984 9.95525L15.4921 9.96475C15.3957 10.1123 15.29 10.2754 15.2746 10.4628C15.2582 10.6639 15.3453 10.8468 15.4975 11.0428C15.6085 11.2069 15.8375 11.431 16.0697 11.6583L16.0916 11.6798C16.3351 11.9181 16.5989 12.1763 16.8106 12.4263L16.8163 12.4328L16.8225 12.439C17.4537 13.0687 17.9786 13.7966 18.3767 14.5943C18.4403 14.8114 18.4014 14.9224 18.352 14.9797C18.2942 15.0467 18.1647 15.1091 17.9196 15.1091H16.0184C15.8699 15.1091 15.7553 15.0798 15.6458 15.022C15.5317 14.9618 15.4144 14.8659 15.2672 14.718C15.1487 14.5988 15.0192 14.4547 14.8612 14.2789C14.822 14.2353 14.7811 14.1897 14.7381 14.1421Z" stroke="black" stroke-width="0.2" mask="url(#path-1-outside-1_72_664)"/>
</svg>
