<svg width="80" height="80" viewBox="0 0 80 80" fill="none" xmlns="http://www.w3.org/2000/svg">
<g clip-path="url(#clip0_26_265)">
<path d="M38.1566 76.8231C58.4935 76.8231 74.9799 60.3368 74.9799 39.9999C74.9799 19.6629 58.4935 3.17659 38.1566 3.17659C17.8197 3.17659 1.33333 19.6629 1.33333 39.9999C1.33333 60.3368 17.8197 76.8231 38.1566 76.8231Z" fill="#E8F3FF"/>
<path d="M38.1566 39.9999L38.1566 76.8231C39.2616 76.1464 58.7899 63.7081 58.7899 39.9999H38.1566Z" fill="#B9DCFF"/>
<path d="M38.1566 3.17659L38.1566 39.9999H58.7899C58.7899 16.2916 39.2616 3.85326 38.1566 3.17659Z" fill="#B9DCFF"/>
<path d="M38.1566 3.17659C39.2616 3.85326 58.7899 16.2916 58.7899 39.9999L74.9799 39.9999C74.9799 19.6629 58.4935 3.17659 38.1566 3.17659Z" fill="#A2D0FF"/>
<path d="M58.7899 39.9999C58.7899 63.7081 39.2616 76.1464 38.1566 76.8231C58.4935 76.8231 74.9799 60.3368 74.9799 39.9999L58.7899 39.9999Z" fill="#A2D0FF"/>
<path d="M38.1566 39.9999L38.1566 76.8231C37.0516 76.1464 17.5233 63.7081 17.5233 39.9999H38.1566Z" fill="#D1E7FF"/>
<path d="M38.1566 3.17659L38.1566 39.9999H17.5233C17.5233 16.2916 37.0516 3.85326 38.1566 3.17659Z" fill="#D1E7FF"/>
<path d="M17.5233 39.9999C17.5233 63.7081 37.0516 76.1464 38.1566 76.8231C17.8197 76.8231 1.33333 60.3368 1.33333 39.9999L17.5233 39.9999Z" fill="#E8F3FF"/>
<path d="M73.6857 42.2715C75.1702 42.2715 76.4145 43.3898 76.5753 44.8647L78.649 63.9121C78.837 65.6311 77.49 67.1333 75.7593 67.1333H52.1071C50.3764 67.1333 49.0294 65.6313 49.2174 63.9121L51.2911 44.8647C51.4519 43.3898 52.6962 42.2715 54.1807 42.2715H73.6857Z" fill="#B9DCFF"/>
<path d="M73.686 48.0857C64.2947 48.0857 56.6182 55.1555 55.6271 64.2633C55.4494 65.8961 54.0704 67.1331 52.4279 67.1331L52.1071 67.1333C50.3764 67.1333 49.0294 65.6313 49.2174 63.9121L51.2911 44.8647C51.4519 43.3898 52.6962 42.2715 54.1807 42.2715H73.6857C75.1692 42.2715 76.4143 43.3885 76.575 44.8632C76.7627 46.5862 75.4142 48.0857 73.686 48.0857Z" fill="#D1E7FF"/>
<path d="M53.6577 71.935C50.1501 73.6408 46.4507 74.7353 42.6161 75.2123C43.7737 74.2649 45.1197 73.0753 46.5456 71.6391C47.0644 71.1165 47.0614 70.2723 46.5389 69.7535C46.0162 69.2348 45.1721 69.2376 44.6534 69.7603C42.6534 71.7746 40.8107 73.2826 39.4901 74.2739V41.3332H45.1337C45.8701 41.3332 46.4671 40.7362 46.4671 39.9999C46.4671 39.2635 45.8701 38.6665 45.1337 38.6665H39.4899V5.72209C42.9897 8.34475 50.1522 14.5982 54.3052 24.4062C54.5929 25.0854 55.3762 25.4009 56.0529 25.1142C56.7309 24.827 57.048 24.0447 56.7609 23.3666C52.9171 14.2891 46.6162 8.06975 42.6006 4.78209C54.4526 6.24359 64.7345 13.5084 70.0779 24.4706C70.4005 25.1324 71.1985 25.4074 71.8605 25.0849C72.5225 24.7622 72.7975 23.9641 72.475 23.3021C66.1942 10.4167 53.0451 1.84326 38.1566 1.84326C17.0675 1.84326 0 18.9089 0 39.9999C0 61.0851 17.0611 78.1541 38.1521 78.1564C43.9947 78.1564 49.6019 76.8728 54.8241 74.3329C55.4864 74.0109 55.7621 73.213 55.4399 72.5508C55.1179 71.8886 54.3202 71.613 53.6577 71.935ZM36.8233 74.2743C34.8196 72.77 31.6111 70.0728 28.4588 66.2063C22.3841 58.7553 19.1666 50.393 18.8796 41.3332H36.8233V74.2743ZM36.8233 4.53759V38.6665H18.8783C19.295 25.7662 25.6959 16.4366 31.0948 10.8184C31.6051 10.2874 31.5881 9.44341 31.0571 8.93325C30.5259 8.42291 29.6819 8.43975 29.1718 8.97075C23.4328 14.9431 16.6258 24.8807 16.2098 38.6665H2.69433C3.38166 20.1557 18.3123 5.22492 36.8233 4.53759ZM2.69433 41.3332H16.2116C16.7433 58.9868 27.7218 70.3251 33.6954 75.2103C16.6563 73.0638 3.34249 58.7895 2.69433 41.3332ZM79.9747 63.767L77.9012 44.7203C77.6663 42.5645 75.8542 40.939 73.6857 40.939H72.033V37.8515C72.033 33.3852 68.3994 29.7517 63.933 29.7517C59.4667 29.7517 55.8332 33.385 55.8332 37.8514V40.9389H54.1806C52.0121 40.9389 50.1999 42.5645 49.9651 44.7203L47.8916 63.7668C47.6186 66.2743 49.5859 68.4663 52.1071 68.4663H75.7592C78.2815 68.4663 80.2475 66.273 79.9747 63.767ZM75.7592 65.7996H52.1071C51.1662 65.7996 50.4411 64.9856 50.5426 64.0555L52.6161 45.009C52.7031 44.2088 53.3759 43.6055 54.1806 43.6055H55.8332V46.2418C55.8332 46.9782 56.4302 47.5752 57.1665 47.5752C57.9029 47.5752 58.4999 46.9782 58.4999 46.2418V37.8514C58.4999 34.8555 60.9372 32.4182 63.933 32.4182C66.929 32.4182 69.3664 34.8555 69.3664 37.8514V40.9389H62.4429C61.7065 40.9389 61.1095 41.5359 61.1095 42.2722C61.1095 43.0085 61.7065 43.6055 62.4429 43.6055H69.3664V46.2418C69.3664 46.9782 69.9634 47.5752 70.6997 47.5752C71.436 47.5752 72.033 46.9782 72.033 46.2418V43.6055H73.6857C74.4903 43.6055 75.163 44.2088 75.2502 45.0088L77.3237 64.0555C77.4255 64.9888 76.6965 65.7996 75.7592 65.7996Z" fill="#2E58FF"/>
</g>
<defs>
<clipPath id="clip0_26_265">
<rect width="80" height="80" fill="white"/>
</clipPath>
</defs>
</svg>
