<svg width="80" height="80" viewBox="0 0 80 80" fill="none" xmlns="http://www.w3.org/2000/svg">
<g clip-path="url(#clip0_26_321)">
<path d="M71.8116 51.9301L65.0808 53.2014C64.2598 53.3566 63.4999 52.7269 63.4999 51.8914V48.2201C63.4999 46.3484 61.6199 45.0582 59.8733 45.7316L56.0383 47.2116L53.5549 13.8682C53.4516 12.4766 52.2916 11.3999 50.8949 11.3999H44.1049C42.7083 11.3999 41.5483 12.4766 41.4449 13.8682L39.0616 45.8782L27.9249 50.1734L25.2216 13.8684C25.1183 12.4767 23.9583 11.4001 22.5616 11.4001H15.7716C14.3749 11.4001 13.2149 12.4767 13.1116 13.8684L10.3966 50.3367L6.50828 52.2651C5.60161 52.7151 5.02661 53.6401 5.02661 54.6534V78.6667H74.9733V54.5501C74.9733 52.8801 73.4533 51.6201 71.8116 51.9301Z" fill="#FEC4FF"/>
<path d="M63.4999 48.2201C63.4999 48.8196 63.1309 49.3572 62.5716 49.5731L53.3659 53.1234C52.4126 53.4911 51.3887 52.7832 51.3941 51.7616C51.3984 50.9189 51.4091 50.3941 51.4031 50.0222C51.3932 49.4124 51.7619 48.8612 52.3309 48.6416L59.8732 45.7316C61.6199 45.0584 63.4999 46.3484 63.4999 48.2201Z" fill="#FFD1FA"/>
<path d="M43.0666 48.22C43.0666 48.8195 42.6976 49.3572 42.1382 49.573L32.7907 53.1782C31.8336 53.5473 30.8066 52.8318 30.8189 51.806C30.8282 51.0247 30.8454 50.5253 30.8204 50.1385C30.7796 49.5082 31.1567 48.9262 31.7459 48.699L39.4399 45.7317C41.1866 45.0583 43.0666 46.3483 43.0666 48.22Z" fill="#FFD1FA"/>
<path d="M22.4949 48.6337V49.3083C22.4949 49.8148 22.2079 50.2775 21.7543 50.5027L14.8416 53.9318C13.9349 54.3818 13.3599 55.3068 13.3599 56.3202V77.3335C13.3599 78.0698 12.7629 78.6668 12.0266 78.6668H5.02661V54.6535C5.02661 53.6402 5.60161 52.7152 6.50828 52.2652L18.6433 46.2452C20.4158 45.3657 22.4949 46.655 22.4949 48.6337Z" fill="#FFD1FA"/>
<path d="M28.8333 67.9999V78.6666H12.5V67.9999C12.5 66.5266 13.6933 65.3333 15.1667 65.3333H26.1667C27.64 65.3333 28.8333 66.5266 28.8333 67.9999Z" fill="#F5B9FF"/>
<path d="M26.3463 65.3393C28.4575 65.4796 28.2965 68.6666 26.1807 68.6666H21.8333C20.3605 68.6666 19.1667 69.8604 19.1667 71.3333V78.6666H12.5V67.9999C12.5 66.5271 13.6938 65.3333 15.1667 65.3333C15.1667 65.3333 26.2868 65.3353 26.3463 65.3393Z" fill="#EBD1FF"/>
<path d="M74.9733 61.3333V71.3333H40.3333C38.86 71.3333 37.6666 70.1399 37.6666 68.6666V63.9999C37.6666 62.5266 38.86 61.3333 40.3333 61.3333H74.9733Z" fill="#F5B9FF"/>
<path d="M74.9733 61.3333V62.6666C74.9733 63.4029 74.3763 63.9999 73.64 63.9999H46.5C45.0271 63.9999 43.8333 65.1938 43.8333 66.6666V69.9999C43.8333 70.7363 43.2363 71.3333 42.5 71.3333H40.3333C38.8605 71.3333 37.6666 70.1394 37.6666 68.6666V63.9999C37.6666 62.5271 38.8605 61.3333 40.3333 61.3333H74.9733Z" fill="#EBD1FF"/>
<path d="M53.555 13.8682C53.4515 12.4766 52.2916 11.3999 50.895 11.3999H44.105C42.7083 11.3999 41.5483 12.4766 41.445 13.8682L39.0616 45.8782L39.44 45.7316C41.1866 45.0582 43.0666 46.3482 43.0666 48.2201V50.2717C43.0666 51.2079 44.0063 51.8522 44.88 51.5154L56.0383 47.2117L53.555 13.8682Z" fill="#F5B9FF"/>
<path d="M47.535 21.9118L45.8605 50.2997C45.8296 50.8217 45.4966 51.2775 45.0088 51.4653L44.88 51.5153C44.0066 51.8537 43.0666 51.2083 43.0666 50.2717V48.22C43.0666 46.3483 41.1866 45.0582 39.44 45.7315L39.0616 45.8782L40.9516 20.5H46.204C46.9713 20.5 47.5801 21.146 47.535 21.9118Z" fill="#EBD1FF"/>
<path d="M53.555 13.8682L54.0483 20.4999H40.9517L41.445 13.8682C41.5483 12.4766 42.7083 11.3999 44.105 11.3999H50.895C52.2917 11.3999 53.4517 12.4766 53.555 13.8682Z" fill="#FFD1FA"/>
<path d="M47.0213 11.3999C47.9563 11.3999 48.5668 12.3324 48.2503 13.2121C48.089 13.6606 48.1405 13.4799 47.7102 19.2654C47.6583 19.9616 47.0785 20.4999 46.3805 20.4999H40.9517L41.445 13.8682C41.5483 12.4766 42.7083 11.3999 44.105 11.3999H47.0213Z" fill="#F5B9FF"/>
<path d="M25.2216 13.8682C25.1181 12.4766 23.9583 11.3999 22.5616 11.3999H15.7716C14.3749 11.3999 13.2149 12.4766 13.1116 13.8682L10.3966 50.3366L18.6433 46.2449C20.4166 45.3651 22.4949 46.6551 22.4949 48.6334V50.3246C22.4949 51.2609 23.4346 51.9056 24.3083 51.5686L27.9249 50.1732L25.2216 13.8682Z" fill="#F5B9FF"/>
<path d="M18.6349 21.9063L17.3136 46.1528C17.2868 46.6318 17.0048 47.0583 16.5749 47.2715L10.3966 50.3367L12.6183 20.5H17.3036C18.0691 20.5 18.6773 21.142 18.6349 21.9063Z" fill="#EBD1FF"/>
<path d="M25.2216 13.8682L25.715 20.4999H12.6183L13.1116 13.8682C13.215 12.4766 14.375 11.3999 15.7716 11.3999H22.5616C23.9583 11.3999 25.1183 12.4766 25.2216 13.8682Z" fill="#FFD1FA"/>
<path d="M18.025 11.3999C18.962 11.3999 19.5713 12.3364 19.2503 13.2166C19.1045 13.6164 19.1125 13.4931 18.7848 19.2416C18.7446 19.9472 18.1605 20.4999 17.4536 20.4999H12.6183L13.1116 13.8682C13.215 12.4766 14.375 11.3999 15.7716 11.3999H18.025Z" fill="#F5B9FF"/>
<path d="M78.6667 77.3333H30.1667V68C30.1667 65.7945 28.3723 64 26.1667 64H15.1667C12.961 64 11.1667 65.7945 11.1667 68V72.8548C11.1667 73.5912 11.7637 74.1882 12.5 74.1882C13.2363 74.1882 13.8333 73.5912 13.8333 72.8548V68C13.8333 67.2648 14.4315 66.6667 15.1667 66.6667H26.1667C26.9018 66.6667 27.5 67.2648 27.5 68V77.3333H6.36017V54.6538C6.36017 54.1437 6.644 53.686 7.101 53.4593L19.2363 47.4387C20.1215 47 21.1622 47.6422 21.1622 48.6332V52.268C21.1622 53.2008 22.0998 53.8495 22.9753 53.512L39.9198 46.9762C40.7968 46.6383 41.733 47.2843 41.733 48.2202V52.2152C41.733 53.1503 42.6733 53.796 43.5462 53.4592L60.3535 46.9763C61.2312 46.6383 62.1667 47.285 62.1667 48.2203V53.5C62.1667 54.3352 62.9263 54.9647 63.7473 54.8102L72.059 53.2405C72.8762 53.0852 73.6397 53.7108 73.6397 54.5507V70H68.5V66.6398C68.5 65.9035 67.903 65.3065 67.1667 65.3065C66.4303 65.3065 65.8333 65.9035 65.8333 66.6398V70H48.5V65.9302C48.5 65.1938 47.903 64.5968 47.1667 64.5968C46.4303 64.5968 45.8333 65.1938 45.8333 65.9302V70H40.3333C39.5982 70 39 69.4018 39 68.6667V64C39 63.2648 39.5982 62.6667 40.3333 62.6667H55.8333V66.5862C55.8333 67.3225 56.4303 67.9195 57.1667 67.9195C57.903 67.9195 58.5 67.3225 58.5 66.5862V62.6667H68.9623C69.6987 62.6667 70.2957 62.0697 70.2957 61.3333C70.2957 60.597 69.6987 60 68.9623 60H40.3333C38.1277 60 36.3333 61.7945 36.3333 64V68.6667C36.3333 70.8722 38.1277 72.6667 40.3333 72.6667H74.9732C75.7095 72.6667 76.3065 72.0697 76.3065 71.3333V54.5508C76.3065 52.0425 74.0258 50.1553 71.5643 50.6202L64.8333 51.8913V48.22C64.8333 45.4133 62.0122 43.4788 59.3938 44.488L44.3997 50.2715V48.2198C44.3997 46.0663 42.6917 44.2898 40.5218 44.2233L42.7747 13.9673C42.8263 13.2753 43.4103 12.7332 44.1045 12.7332H50.8955C51.5895 12.7332 52.1737 13.2753 52.2253 13.9673L52.6123 19.1667H46.2527C45.5163 19.1667 44.9193 19.7637 44.9193 20.5C44.9193 21.2363 45.5163 21.8333 46.2527 21.8333H52.8108L54.241 41.0393C54.2955 41.7737 54.9335 42.3247 55.6695 42.27C56.4038 42.2153 56.9548 41.5758 56.9002 40.8415L54.8845 13.7696C54.7298 11.6931 52.9778 10.0667 50.8955 10.0667H44.1045C42.0223 10.0667 40.2702 11.6931 40.1155 13.7696L37.7947 44.9377L23.8288 50.3245V48.6332C23.8288 45.6622 20.707 43.7322 18.051 45.0498L11.8997 48.1017L14.4413 13.9677C14.4928 13.2757 15.0768 12.7335 15.771 12.7335H22.562C23.2562 12.7335 23.84 13.2757 23.8917 13.9677L24.2788 19.1667H18.5107C17.7743 19.1667 17.1773 19.7637 17.1773 20.5C17.1773 21.2363 17.7743 21.8333 18.5107 21.8333H24.4773L26.0623 43.1178C26.117 43.852 26.7563 44.4047 27.491 44.3485C28.2253 44.2938 28.7763 43.6542 28.7217 42.92L26.5512 13.7696C26.3967 11.6931 24.6445 10.0667 22.5622 10.0667H15.7712C13.6888 10.0667 11.9368 11.6931 11.7822 13.7696L9.12317 49.4792L5.91583 51.0705C4.545 51.7507 3.6935 53.1235 3.6935 54.6538V77.3333H1.33333C0.597 77.3333 0 77.9303 0 78.6667C0 79.403 0.597 80 1.33333 80H78.6667C79.403 80 80 79.403 80 78.6667C80 77.9303 79.403 77.3333 78.6667 77.3333Z" fill="#FB2EFF"/>
<path d="M16.8333 7.16667C17.5697 7.16667 18.1667 6.56967 18.1667 5.83333C18.1667 4.08717 19.5872 2.66667 21.3333 2.66667H28.8333C29.5697 2.66667 30.1667 2.06967 30.1667 1.33333C30.1667 0.597 29.5697 0 28.8333 0H21.3333C18.1168 0 15.5 2.61683 15.5 5.83333C15.5 6.56967 16.097 7.16667 16.8333 7.16667Z" fill="#FB2EFF"/>
<path d="M23.6666 6.33333C23.6666 7.06967 24.2636 7.66667 25 7.66667H33.1666C33.903 7.66667 34.5 7.06967 34.5 6.33333C34.5 5.597 33.903 5 33.1666 5H25C24.2636 5 23.6666 5.597 23.6666 6.33333Z" fill="#FB2EFF"/>
<path d="M44.3333 7.16667C45.0697 7.16667 45.6667 6.56967 45.6667 5.83333C45.6667 4.08717 47.0872 2.66667 48.8333 2.66667H56.3333C57.0697 2.66667 57.6667 2.06967 57.6667 1.33333C57.6667 0.597 57.0697 0 56.3333 0H48.8333C45.6168 0 43 2.61683 43 5.83333C43 6.56967 43.597 7.16667 44.3333 7.16667Z" fill="#FB2EFF"/>
<path d="M51.1666 6.33333C51.1666 7.06967 51.7636 7.66667 52.5 7.66667H60.6666C61.403 7.66667 62 7.06967 62 6.33333C62 5.597 61.403 5 60.6666 5H52.5C51.7636 5 51.1666 5.597 51.1666 6.33333Z" fill="#FB2EFF"/>
</g>
<defs>
<clipPath id="clip0_26_321">
<rect width="80" height="80" fill="white"/>
</clipPath>
</defs>
</svg>
