<svg width="20" height="20" viewBox="0 0 20 20" fill="none" xmlns="http://www.w3.org/2000/svg">
<rect width="20" height="20" fill="white"/>
<path d="M16.6666 8.33341C16.6666 13.3334 9.99998 18.3334 9.99998 18.3334C9.99998 18.3334 3.33331 13.3334 3.33331 8.33341C3.33331 6.5653 4.03569 4.86961 5.28593 3.61937C6.53618 2.36913 8.23187 1.66675 9.99998 1.66675C11.7681 1.66675 13.4638 2.36913 14.714 3.61937C15.9643 4.86961 16.6666 6.5653 16.6666 8.33341Z" stroke="url(#paint0_linear_204_670)" stroke-width="1.66667" stroke-linecap="round" stroke-linejoin="round"/>
<path d="M10 10.8333C11.3807 10.8333 12.5 9.71396 12.5 8.33325C12.5 6.95254 11.3807 5.83325 10 5.83325C8.61929 5.83325 7.5 6.95254 7.5 8.33325C7.5 9.71396 8.61929 10.8333 10 10.8333Z" stroke="url(#paint1_linear_204_670)" stroke-width="1.66667" stroke-linecap="round" stroke-linejoin="round"/>
<defs>
<linearGradient id="paint0_linear_204_670" x1="17" y1="3.5" x2="7" y2="19.5" gradientUnits="userSpaceOnUse">
<stop stop-color="#FB2EFF"/>
<stop offset="1" stop-color="#005AE9"/>
</linearGradient>
<linearGradient id="paint1_linear_204_670" x1="10" y1="5.83325" x2="10" y2="10.8333" gradientUnits="userSpaceOnUse">
<stop stop-color="#FB2EFF"/>
<stop offset="1" stop-color="#005AE9"/>
</linearGradient>
</defs>
</svg>
